<svg xmlns="http://www.w3.org/2000/svg" xmlns:xlink="http://www.w3.org/1999/xlink" width="500" zoomAndPan="magnify" viewBox="0 0 375 374.999991" height="500" preserveAspectRatio="xMidYMid meet" version="1.0"><defs><g/><clipPath id="b91252edda"><path d="M 37.5 10 L 258 10 L 258 304 L 37.5 304 Z M 37.5 10 " clip-rule="nonzero"/></clipPath><clipPath id="ad0fc8e905"><path d="M 183 244 L 344.8125 244 L 344.8125 310 L 183 310 Z M 183 244 " clip-rule="nonzero"/></clipPath></defs><path stroke-linecap="round" transform="matrix(5.448788, 0, 0, 5.448788, 26.057548, -9.503248)" fill-opacity="1" fill="#4f5b93" fill-rule="evenodd" stroke-linejoin="round" d="M 18.397345 49.418839 L 20.92371 54.612798 L 23.871613 55.034337 L 23.871613 39.030921 L 22.186892 31.029572 L 17.975806 31.170085 Z M 18.397345 49.418839 " stroke="#333333" stroke-width="1.875" stroke-opacity="1" stroke-miterlimit="4"/><path fill="#7a86b8" d="M 42.746094 226.496094 C 68.921875 225.039062 80.375 213.042969 80.375 213.042969 L 97.230469 294.261719 L 123.964844 298.007812 L 133.160156 166.386719 L 149.164062 167.917969 L 178.28125 196.355469 L 229.535156 180.179688 L 236.515625 156.511719 L 242.136719 104.578125 L 252.011719 92.316406 L 246.734375 89.253906 L 230.558594 102.195312 L 210.195312 158.042969 L 195.140625 158.726562 L 203.484375 84.652344 L 169.085938 39.53125 L 129.414062 45.660156 C 129.414062 45.660156 57.265625 17.789062 42.746094 15.523438 " fill-opacity="1" fill-rule="evenodd"/><g clip-path="url(#b91252edda)"><path stroke-linecap="round" transform="matrix(5.448788, 0, 0, 5.448788, 26.057548, -9.503248)" fill="none" stroke-linejoin="round" d="M 3.0628 43.312263 C 7.866764 43.044859 9.968722 40.843251 9.968722 40.843251 L 13.062156 55.749089 L 17.968637 56.436598 L 19.656226 32.280567 L 22.593376 32.561593 L 27.937167 37.780643 L 37.343645 34.81195 L 38.62475 30.468237 L 39.656373 20.937018 L 41.468703 18.686661 L 40.500167 18.124609 L 37.531474 20.499707 L 33.794261 30.749263 L 31.031318 30.874721 L 32.562622 17.280098 L 26.249579 8.999157 L 18.968716 10.123977 C 18.968716 10.123977 5.727526 5.008877 3.0628 4.593074 " stroke="#333333" stroke-width="1.875" stroke-opacity="1" stroke-miterlimit="4"/></g><path stroke-linecap="round" transform="matrix(5.448788, 0, 0, 5.448788, 26.057548, -9.503248)" fill-opacity="1" fill="#4f5b93" fill-rule="evenodd" stroke-linejoin="round" d="M 18.677654 10.253019 L 10.11497 11.656715 L 8.851788 24.290688 L 17.554984 33.274911 L 20.221862 32.292037 Z M 18.677654 10.253019 " stroke="#333333" stroke-width="1.875" stroke-opacity="1" stroke-miterlimit="4"/><g clip-path="url(#ad0fc8e905)"><path fill="#333333" d="M 312.453125 257.578125 L 312.453125 275.179688 L 320.207031 275.179688 C 322.152344 275.179688 323.851562 274.773438 325.304688 273.960938 C 326.757812 273.148438 327.863281 272.074219 328.617188 270.738281 C 329.371094 269.398438 329.75 267.960938 329.75 266.421875 C 329.75 263.632812 328.878906 261.46875 327.136719 259.929688 C 325.390625 258.363281 323.082031 257.578125 320.207031 257.578125 Z M 297.984375 301.585938 L 297.984375 251.957031 C 297.984375 249.71875 298.695312 247.949219 300.121094 246.640625 C 301.574219 245.304688 303.273438 244.636719 305.21875 244.636719 L 322.953125 244.636719 C 326.730469 244.636719 330.285156 245.480469 333.628906 247.164062 C 336.996094 248.820312 339.683594 251.304688 341.6875 254.613281 C 343.722656 257.898438 344.738281 261.832031 344.738281 266.421875 C 344.738281 270.632812 343.910156 274.394531 342.253906 277.707031 C 340.597656 280.992188 338.171875 283.5625 334.976562 285.421875 C 331.78125 287.28125 327.933594 288.207031 323.433594 288.207031 L 312.453125 288.207031 L 312.453125 301.585938 C 312.453125 304.113281 311.785156 306.042969 310.445312 307.378906 C 309.140625 308.6875 307.398438 309.339844 305.21875 309.339844 C 303.097656 309.339844 301.355469 308.671875 299.988281 307.335938 C 298.625 306 297.984375 304.054688 297.984375 301.585938 Z M 249.621094 282.675781 L 249.621094 301.585938 C 249.621094 304.113281 248.953125 306.042969 247.617188 307.378906 C 246.308594 308.6875 244.566406 309.339844 242.386719 309.339844 C 240.265625 309.339844 238.523438 308.671875 237.15625 307.335938 C 235.792969 306 235.152344 304.054688 235.152344 301.585938 L 235.152344 251.871094 C 235.152344 249.371094 235.820312 247.453125 237.15625 246.117188 C 238.496094 244.78125 240.238281 244.113281 242.386719 244.113281 C 244.566406 244.113281 246.308594 244.765625 247.617188 246.074219 C 248.953125 247.382812 249.621094 249.3125 249.621094 251.871094 L 249.621094 269.210938 L 276.546875 269.210938 L 276.546875 251.871094 C 276.546875 249.371094 277.214844 247.453125 278.550781 246.117188 C 279.886719 244.78125 281.632812 244.113281 283.78125 244.113281 C 285.960938 244.113281 287.703125 244.765625 289.007812 246.074219 C 290.34375 247.382812 291.015625 249.3125 291.015625 251.871094 L 291.015625 301.585938 C 291.015625 304.113281 290.34375 306.042969 289.007812 307.378906 C 287.703125 308.6875 285.960938 309.339844 283.78125 309.339844 C 281.660156 309.339844 279.917969 308.671875 278.550781 307.335938 C 277.1875 306 276.546875 304.054688 276.546875 301.585938 L 276.546875 282.675781 Z M 198.378906 257.578125 L 198.378906 275.179688 L 206.132812 275.179688 C 208.082031 275.179688 209.78125 274.773438 211.234375 273.960938 C 212.683594 273.148438 213.789062 272.074219 214.542969 270.738281 C 215.300781 269.398438 215.675781 267.960938 215.675781 266.421875 C 215.675781 263.632812 214.804688 261.46875 213.0625 259.929688 C 211.320312 258.363281 209.011719 257.578125 206.132812 257.578125 Z M 183.914062 301.585938 L 183.914062 251.957031 C 183.914062 249.71875 184.625 247.949219 186.046875 246.640625 C 187.5 245.304688 189.199219 244.636719 191.144531 244.636719 L 208.878906 244.636719 C 212.65625 244.636719 216.214844 245.480469 219.554688 247.164062 C 222.925781 248.820312 225.613281 251.304688 227.617188 254.613281 C 229.648438 257.898438 230.664062 261.832031 230.664062 266.421875 C 230.664062 270.632812 229.839844 274.394531 228.183594 277.707031 C 226.527344 280.992188 224.101562 283.5625 220.90625 285.421875 C 217.710938 287.28125 213.863281 288.207031 209.359375 288.207031 L 198.378906 288.207031 L 198.378906 301.585938 C 198.378906 304.113281 197.710938 306.042969 196.375 307.378906 C 195.066406 308.6875 193.324219 309.339844 191.144531 309.339844 C 189.023438 309.339844 187.28125 308.671875 185.917969 307.335938 C 184.550781 306 183.914062 304.054688 183.914062 301.585938 Z M 183.914062 301.585938 " fill-opacity="1" fill-rule="nonzero"/></g><g fill="#333333" fill-opacity="1"><g transform="translate(183.340327, 357.421535)"><g><path d="M 27.453125 -4.15625 C 27.523438 -3.976562 27.5625 -3.710938 27.5625 -3.359375 C 27.5625 -3.015625 27.5625 -2.734375 27.5625 -2.515625 C 27.5625 -2.222656 27.503906 -1.945312 27.390625 -1.6875 C 27.285156 -1.4375 27.144531 -1.203125 26.96875 -0.984375 C 26.632812 -0.546875 26.160156 -0.21875 25.546875 0 C 24.671875 0.289062 23.847656 0.4375 23.078125 0.4375 C 22.679688 0.476562 22.265625 0.5 21.828125 0.5 C 21.390625 0.5 20.953125 0.535156 20.515625 0.609375 L 20.296875 0.609375 C 17.484375 0.640625 14.582031 0.640625 11.59375 0.609375 C 10.863281 0.566406 10.039062 0.570312 9.125 0.625 C 8.21875 0.6875 7.328125 0.671875 6.453125 0.578125 C 5.578125 0.484375 4.785156 0.265625 4.078125 -0.078125 C 3.367188 -0.429688 2.867188 -0.988281 2.578125 -1.75 C 2.503906 -1.9375 2.445312 -2.109375 2.40625 -2.265625 C 2.375 -2.429688 2.359375 -2.609375 2.359375 -2.796875 C 2.210938 -4.035156 2.15625 -5.253906 2.1875 -6.453125 C 2.226562 -7.660156 2.25 -8.847656 2.25 -10.015625 L 2.359375 -17.9375 L 2.359375 -25.265625 C 2.359375 -26.578125 2.363281 -27.742188 2.375 -28.765625 C 2.394531 -29.785156 2.425781 -30.914062 2.46875 -32.15625 L 2.46875 -32.4375 C 2.5 -32.800781 2.523438 -33.164062 2.546875 -33.53125 C 2.566406 -33.894531 2.578125 -34.257812 2.578125 -34.625 C 2.648438 -35.457031 2.847656 -36.164062 3.171875 -36.75 C 3.390625 -37.300781 3.773438 -37.738281 4.328125 -38.0625 C 4.796875 -38.394531 5.359375 -38.5625 6.015625 -38.5625 C 6.273438 -38.5625 6.519531 -38.550781 6.75 -38.53125 C 6.988281 -38.507812 7.21875 -38.484375 7.4375 -38.453125 C 7.65625 -38.410156 7.863281 -38.332031 8.0625 -38.21875 C 8.269531 -38.113281 8.484375 -37.972656 8.703125 -37.796875 C 8.921875 -37.535156 9.117188 -37.222656 9.296875 -36.859375 C 9.441406 -36.460938 9.535156 -36.0625 9.578125 -35.65625 C 9.609375 -35.40625 9.640625 -35.171875 9.671875 -34.953125 C 9.710938 -34.734375 9.734375 -34.515625 9.734375 -34.296875 C 9.660156 -34.078125 9.625 -33.859375 9.625 -33.640625 C 9.625 -33.421875 9.625 -33.21875 9.625 -33.03125 L 9.625 -32.046875 L 9.40625 -6.296875 L 20.234375 -6.1875 L 22.8125 -6.1875 C 23.03125 -6.1875 23.265625 -6.175781 23.515625 -6.15625 C 23.773438 -6.132812 24.03125 -6.109375 24.28125 -6.078125 C 24.570312 -6.035156 24.828125 -5.992188 25.046875 -5.953125 C 25.265625 -5.921875 25.484375 -5.867188 25.703125 -5.796875 C 26.109375 -5.691406 26.4375 -5.507812 26.6875 -5.25 C 27.09375 -4.882812 27.347656 -4.519531 27.453125 -4.15625 Z M 27.453125 -4.15625 "/></g></g></g><g fill="#333333" fill-opacity="1"><g transform="translate(213.079561, 357.421535)"><g><path d="M 9.078125 -20.734375 C 9.078125 -19.710938 9.085938 -18.5625 9.109375 -17.28125 C 9.128906 -16.007812 9.140625 -14.6875 9.140625 -13.3125 C 9.140625 -11.945312 9.140625 -10.597656 9.140625 -9.265625 C 9.140625 -7.941406 9.117188 -6.710938 9.078125 -5.578125 C 9.046875 -5.035156 8.992188 -4.441406 8.921875 -3.796875 C 8.847656 -3.160156 8.703125 -2.566406 8.484375 -2.015625 C 8.265625 -1.472656 7.925781 -1.03125 7.46875 -0.6875 C 7.007812 -0.34375 6.398438 -0.1875 5.640625 -0.21875 C 4.503906 -0.289062 3.691406 -0.78125 3.203125 -1.6875 C 2.710938 -2.601562 2.429688 -3.882812 2.359375 -5.53125 C 2.359375 -6.363281 2.347656 -7.328125 2.328125 -8.421875 C 2.304688 -9.515625 2.285156 -10.625 2.265625 -11.75 C 2.253906 -12.882812 2.25 -13.988281 2.25 -15.0625 C 2.25 -16.144531 2.25 -17.125 2.25 -18 C 2.25 -18.507812 2.238281 -19.128906 2.21875 -19.859375 C 2.195312 -20.585938 2.203125 -21.332031 2.234375 -22.09375 C 2.273438 -22.863281 2.367188 -23.601562 2.515625 -24.3125 C 2.660156 -25.019531 2.898438 -25.613281 3.234375 -26.09375 C 3.484375 -26.382812 3.84375 -26.609375 4.3125 -26.765625 C 4.789062 -26.929688 5.296875 -27.015625 5.828125 -27.015625 C 6.359375 -27.015625 6.867188 -26.921875 7.359375 -26.734375 C 7.847656 -26.554688 8.203125 -26.304688 8.421875 -25.984375 C 8.566406 -25.765625 8.675781 -25.453125 8.75 -25.046875 C 8.820312 -24.648438 8.882812 -24.203125 8.9375 -23.703125 C 9 -23.210938 9.035156 -22.703125 9.046875 -22.171875 C 9.066406 -21.648438 9.078125 -21.171875 9.078125 -20.734375 Z M 7 -31.78125 C 5.875 -31.488281 4.9375 -31.601562 4.1875 -32.125 C 3.4375 -32.65625 2.972656 -33.453125 2.796875 -34.515625 C 2.648438 -35.273438 2.703125 -35.945312 2.953125 -36.53125 C 3.210938 -37.113281 3.597656 -37.5625 4.109375 -37.875 C 4.617188 -38.1875 5.203125 -38.320312 5.859375 -38.28125 C 6.515625 -38.25 7.171875 -37.992188 7.828125 -37.515625 C 8.441406 -37.078125 8.882812 -36.566406 9.15625 -35.984375 C 9.4375 -35.398438 9.53125 -34.832031 9.4375 -34.28125 C 9.34375 -33.738281 9.09375 -33.238281 8.6875 -32.78125 C 8.289062 -32.332031 7.726562 -32 7 -31.78125 Z M 7 -31.78125 "/></g></g></g><g fill="#333333" fill-opacity="1"><g transform="translate(224.778445, 357.421535)"><g><path d="M 17.890625 -23.140625 C 18.503906 -22.953125 18.898438 -22.613281 19.078125 -22.125 C 19.265625 -21.632812 19.320312 -21.113281 19.25 -20.5625 C 19.03125 -19.4375 18.410156 -18.742188 17.390625 -18.484375 C 16.804688 -18.335938 16.210938 -18.265625 15.609375 -18.265625 C 15.015625 -18.265625 14.40625 -18.25 13.78125 -18.21875 L 13.78125 -5.578125 C 13.78125 -4.703125 13.726562 -3.8125 13.625 -2.90625 C 13.625 -2.570312 13.53125 -2.222656 13.34375 -1.859375 C 13.269531 -1.679688 13.21875 -1.570312 13.1875 -1.53125 C 13.1875 -1.457031 13.148438 -1.347656 13.078125 -1.203125 C 12.859375 -0.804688 12.566406 -0.476562 12.203125 -0.21875 C 11.398438 0.21875 10.539062 0.328125 9.625 0.109375 C 9.082031 -0.00390625 8.664062 -0.1875 8.375 -0.4375 C 8.039062 -0.695312 7.800781 -1.007812 7.65625 -1.375 C 7.582031 -1.550781 7.523438 -1.726562 7.484375 -1.90625 C 7.453125 -2.09375 7.398438 -2.28125 7.328125 -2.46875 C 7.296875 -2.644531 7.269531 -2.816406 7.25 -2.984375 C 7.226562 -3.148438 7.21875 -3.285156 7.21875 -3.390625 L 7.21875 -6.5625 C 7.21875 -8.457031 7.226562 -10.425781 7.25 -12.46875 C 7.269531 -14.507812 7.28125 -16.476562 7.28125 -18.375 C 6.4375 -18.414062 5.566406 -18.441406 4.671875 -18.453125 C 3.785156 -18.472656 3.140625 -18.6875 2.734375 -19.09375 C 2.515625 -19.3125 2.367188 -19.59375 2.296875 -19.9375 C 2.222656 -20.28125 2.195312 -20.632812 2.21875 -21 C 2.238281 -21.363281 2.300781 -21.703125 2.40625 -22.015625 C 2.519531 -22.328125 2.664062 -22.554688 2.84375 -22.703125 C 3.320312 -23.140625 3.75 -23.382812 4.125 -23.4375 C 4.507812 -23.488281 4.992188 -23.535156 5.578125 -23.578125 C 5.648438 -23.578125 5.894531 -23.582031 6.3125 -23.59375 C 6.738281 -23.613281 7.003906 -23.625 7.109375 -23.625 C 7.148438 -24.863281 7.1875 -26.101562 7.21875 -27.34375 C 7.257812 -28.582031 7.378906 -29.722656 7.578125 -30.765625 C 7.773438 -31.804688 8.082031 -32.71875 8.5 -33.5 C 8.925781 -34.28125 9.578125 -34.875 10.453125 -35.28125 C 11.503906 -35.75 12.703125 -36.035156 14.046875 -36.140625 C 15.398438 -36.253906 16.625 -36.09375 17.71875 -35.65625 C 18.226562 -35.476562 18.726562 -35.113281 19.21875 -34.5625 C 19.71875 -34.019531 19.945312 -33.421875 19.90625 -32.765625 C 19.875 -32.109375 19.75 -31.503906 19.53125 -30.953125 C 19.3125 -30.410156 18.835938 -30.046875 18.109375 -29.859375 C 17.773438 -29.785156 17.4375 -29.757812 17.09375 -29.78125 C 16.75 -29.800781 16.394531 -29.8125 16.03125 -29.8125 C 15.664062 -29.8125 15.328125 -29.765625 15.015625 -29.671875 C 14.703125 -29.578125 14.4375 -29.40625 14.21875 -29.15625 C 14.039062 -28.9375 13.921875 -28.644531 13.859375 -28.28125 C 13.804688 -27.914062 13.757812 -27.53125 13.71875 -27.125 C 13.6875 -26.726562 13.679688 -26.335938 13.703125 -25.953125 C 13.722656 -25.566406 13.734375 -25.25 13.734375 -25 L 13.734375 -23.625 C 14.566406 -23.550781 15.335938 -23.492188 16.046875 -23.453125 C 16.765625 -23.421875 17.378906 -23.316406 17.890625 -23.140625 Z M 17.890625 -23.140625 "/></g></g></g><g fill="#333333" fill-opacity="1"><g transform="translate(246.918848, 357.421535)"><g><path d="M 21.109375 -7.5 C 21.546875 -7.601562 21.992188 -7.671875 22.453125 -7.703125 C 22.910156 -7.742188 23.328125 -7.691406 23.703125 -7.546875 C 24.085938 -7.398438 24.40625 -7.15625 24.65625 -6.8125 C 24.914062 -6.46875 25.046875 -5.984375 25.046875 -5.359375 C 25.046875 -4.921875 24.9375 -4.5 24.71875 -4.09375 C 24.5 -3.695312 24.222656 -3.332031 23.890625 -3 C 23.566406 -2.675781 23.203125 -2.394531 22.796875 -2.15625 C 22.398438 -1.925781 22.019531 -1.738281 21.65625 -1.59375 C 20.601562 -1.113281 19.390625 -0.742188 18.015625 -0.484375 C 16.648438 -0.234375 15.238281 -0.144531 13.78125 -0.21875 C 11.8125 -0.289062 9.925781 -0.679688 8.125 -1.390625 C 6.320312 -2.109375 4.910156 -3.285156 3.890625 -4.921875 C 2.941406 -6.523438 2.375 -8.3125 2.1875 -10.28125 C 2.007812 -12.25 2.101562 -14.109375 2.46875 -15.859375 C 2.863281 -17.972656 3.546875 -19.695312 4.515625 -21.03125 C 5.484375 -22.363281 6.640625 -23.429688 7.984375 -24.234375 C 9.628906 -25.179688 11.472656 -25.671875 13.515625 -25.703125 C 15.554688 -25.742188 17.503906 -25.34375 19.359375 -24.5 C 20.597656 -23.957031 21.707031 -23.21875 22.6875 -22.28125 C 23.675781 -21.351562 24.425781 -20.234375 24.9375 -18.921875 C 25.082031 -18.597656 25.203125 -18.195312 25.296875 -17.71875 C 25.390625 -17.25 25.453125 -16.75 25.484375 -16.21875 C 25.523438 -15.6875 25.523438 -15.164062 25.484375 -14.65625 C 25.453125 -14.144531 25.363281 -13.691406 25.21875 -13.296875 C 25 -12.640625 24.722656 -12.128906 24.390625 -11.765625 C 24.066406 -11.398438 23.648438 -11.125 23.140625 -10.9375 C 22.628906 -10.757812 22.015625 -10.640625 21.296875 -10.578125 C 20.585938 -10.523438 19.742188 -10.484375 18.765625 -10.453125 C 17.890625 -10.410156 17.066406 -10.390625 16.296875 -10.390625 C 15.535156 -10.390625 14.753906 -10.398438 13.953125 -10.421875 C 13.148438 -10.441406 12.316406 -10.457031 11.453125 -10.46875 C 10.597656 -10.488281 9.644531 -10.519531 8.59375 -10.5625 C 8.476562 -9.832031 8.578125 -9.203125 8.890625 -8.671875 C 9.203125 -8.140625 9.628906 -7.703125 10.171875 -7.359375 C 10.722656 -7.015625 11.34375 -6.75 12.03125 -6.5625 C 12.726562 -6.382812 13.40625 -6.273438 14.0625 -6.234375 C 15.300781 -6.160156 16.484375 -6.257812 17.609375 -6.53125 C 18.742188 -6.8125 19.910156 -7.132812 21.109375 -7.5 Z M 18.765625 -18.109375 C 18.066406 -18.910156 17.335938 -19.492188 16.578125 -19.859375 C 15.992188 -20.109375 15.378906 -20.222656 14.734375 -20.203125 C 14.097656 -20.191406 13.488281 -20.09375 12.90625 -19.90625 C 11.851562 -19.65625 10.960938 -19.109375 10.234375 -18.265625 C 10.160156 -18.191406 10.03125 -18.019531 9.84375 -17.75 C 9.664062 -17.476562 9.492188 -17.195312 9.328125 -16.90625 C 9.160156 -16.613281 9.039062 -16.335938 8.96875 -16.078125 C 8.894531 -15.828125 8.929688 -15.703125 9.078125 -15.703125 L 19.796875 -15.703125 C 19.765625 -16.210938 19.675781 -16.640625 19.53125 -16.984375 C 19.382812 -17.328125 19.128906 -17.703125 18.765625 -18.109375 Z M 18.765625 -18.109375 "/></g></g></g></svg>